<?xml version="1.0" encoding="UTF-8" standalone="no"?>
<!DOCTYPE svg PUBLIC "-//W3C//DTD SVG 1.1//EN"
 "http://www.w3.org/Graphics/SVG/1.1/DTD/svg11.dtd">
<!-- Generated by graphviz version 2.43.0 (0)
 -->
<!-- Title: asset_pipeline Pages: 1 -->
<svg width="1524pt" height="275pt"
 viewBox="0.00 0.00 1524.00 275.00" xmlns="http://www.w3.org/2000/svg" xmlns:xlink="http://www.w3.org/1999/xlink">
<g id="graph0" class="graph" transform="scale(1 1) rotate(0) translate(18 257)">
<title>asset_pipeline</title>
<polygon fill="white" stroke="transparent" points="-18,18 -18,-257 1506,-257 1506,18 -18,18"/>
<text text-anchor="middle" x="104.5" y="-215.8" font-family="Noto Sans CJK SC" font-size="24.00">资产创建总体流程</text>
<!-- h -->
<g id="node1" class="node">
<title>h</title>
<path fill="#eef6ff" stroke="#3973a8" stroke-width="1.5" d="M138,-192C138,-192 12,-192 12,-192 6,-192 0,-186 0,-180 0,-180 0,-168 0,-168 0,-162 6,-156 12,-156 12,-156 138,-156 138,-156 144,-156 150,-162 150,-168 150,-168 150,-180 150,-180 150,-186 144,-192 138,-192"/>
<text text-anchor="middle" x="75" y="-170.5" font-family="Noto Sans CJK SC" font-size="15.00" fill="#172033">图片（Hunyuan）</text>
</g>
<!-- hg -->
<g id="node2" class="node">
<title>hg</title>
<path fill="#f8fafc" stroke="#64748b" stroke-width="1.5" d="M301,-192C301,-192 214,-192 214,-192 208,-192 202,-186 202,-180 202,-180 202,-168 202,-168 202,-162 208,-156 214,-156 214,-156 301,-156 301,-156 307,-156 313,-162 313,-168 313,-168 313,-180 313,-180 313,-186 307,-192 301,-192"/>
<text text-anchor="middle" x="257.5" y="-170.5" font-family="Noto Sans CJK SC" font-size="15.00" fill="#172033">生成 3D 模型</text>
</g>
<!-- h&#45;&gt;hg -->
<g id="edge1" class="edge">
<title>h&#45;&gt;hg</title>
<path fill="none" stroke="#475569" stroke-width="1.7" d="M150.02,-174C150.02,-174 194.24,-174 194.24,-174"/>
<polygon fill="#475569" stroke="#475569" stroke-width="1.7" points="194.24,-176.63 201.74,-174 194.24,-171.38 194.24,-176.63"/>
</g>
<!-- r -->
<g id="node6" class="node">
<title>r</title>
<path fill="#f4f0ff" stroke="#7658a8" stroke-width="1.5" d="M485,-124C485,-124 377,-124 377,-124 371,-124 365,-118 365,-112 365,-112 365,-100 365,-100 365,-94 371,-88 377,-88 377,-88 485,-88 485,-88 491,-88 497,-94 497,-100 497,-100 497,-112 497,-112 497,-118 491,-124 485,-124"/>
<text text-anchor="middle" x="431" y="-102.5" font-family="Noto Sans CJK SC" font-size="15.00" fill="#172033">可选：网格精修</text>
</g>
<!-- hg&#45;&gt;r -->
<g id="edge2" class="edge">
<title>hg&#45;&gt;r</title>
<path fill="none" stroke="#475569" stroke-width="1.7" d="M313.35,-174C364.07,-174 431,-174 431,-174 431,-174 431,-131.72 431,-131.72"/>
<polygon fill="#475569" stroke="#475569" stroke-width="1.7" points="433.63,-131.72 431,-124.22 428.38,-131.72 433.63,-131.72"/>
</g>
<!-- s -->
<g id="node3" class="node">
<title>s</title>
<path fill="#eef6ff" stroke="#3973a8" stroke-width="1.5" d="M130.5,-124C130.5,-124 19.5,-124 19.5,-124 13.5,-124 7.5,-118 7.5,-112 7.5,-112 7.5,-100 7.5,-100 7.5,-94 13.5,-88 19.5,-88 19.5,-88 130.5,-88 130.5,-88 136.5,-88 142.5,-94 142.5,-100 142.5,-100 142.5,-112 142.5,-112 142.5,-118 136.5,-124 130.5,-124"/>
<text text-anchor="middle" x="75" y="-102.5" font-family="Noto Sans CJK SC" font-size="15.00" fill="#172033">图片（SAM3D）</text>
</g>
<!-- sg -->
<g id="node4" class="node">
<title>sg</title>
<path fill="#f8fafc" stroke="#64748b" stroke-width="1.5" d="M301,-124C301,-124 214,-124 214,-124 208,-124 202,-118 202,-112 202,-112 202,-100 202,-100 202,-94 208,-88 214,-88 214,-88 301,-88 301,-88 307,-88 313,-94 313,-100 313,-100 313,-112 313,-112 313,-118 307,-124 301,-124"/>
<text text-anchor="middle" x="257.5" y="-102.5" font-family="Noto Sans CJK SC" font-size="15.00" fill="#172033">重建 3D 模型</text>
</g>
<!-- s&#45;&gt;sg -->
<g id="edge3" class="edge">
<title>s&#45;&gt;sg</title>
<path fill="none" stroke="#475569" stroke-width="1.7" d="M142.7,-106C142.7,-106 194.35,-106 194.35,-106"/>
<polygon fill="#475569" stroke="#475569" stroke-width="1.7" points="194.35,-108.63 201.85,-106 194.35,-103.38 194.35,-108.63"/>
</g>
<!-- sg&#45;&gt;r -->
<g id="edge4" class="edge">
<title>sg&#45;&gt;r</title>
<path fill="none" stroke="#475569" stroke-width="1.7" d="M313.35,-106C313.35,-106 357.46,-106 357.46,-106"/>
<polygon fill="#475569" stroke="#475569" stroke-width="1.7" points="357.46,-108.63 364.96,-106 357.46,-103.38 357.46,-108.63"/>
</g>
<!-- e -->
<g id="node5" class="node">
<title>e</title>
<path fill="#eef6ff" stroke="#3973a8" stroke-width="1.5" d="M289.5,-56C289.5,-56 225.5,-56 225.5,-56 219.5,-56 213.5,-50 213.5,-44 213.5,-44 213.5,-32 213.5,-32 213.5,-26 219.5,-20 225.5,-20 225.5,-20 289.5,-20 289.5,-20 295.5,-20 301.5,-26 301.5,-32 301.5,-32 301.5,-44 301.5,-44 301.5,-50 295.5,-56 289.5,-56"/>
<text text-anchor="middle" x="257.5" y="-34.5" font-family="Noto Sans CJK SC" font-size="15.00" fill="#172033">已有 GLB</text>
</g>
<!-- e&#45;&gt;r -->
<g id="edge5" class="edge">
<title>e&#45;&gt;r</title>
<path fill="none" stroke="#475569" stroke-width="1.7" d="M301.73,-48C353.13,-48 431,-48 431,-48 431,-48 431,-80.47 431,-80.47"/>
<polygon fill="#475569" stroke="#475569" stroke-width="1.7" points="428.38,-80.47 431,-87.97 433.63,-80.47 428.38,-80.47"/>
</g>
<!-- b -->
<g id="node7" class="node">
<title>b</title>
<path fill="#f8fafc" stroke="#64748b" stroke-width="1.5" d="M708,-132C708,-132 561,-132 561,-132 555,-132 549,-126 549,-120 549,-120 549,-92 549,-92 549,-86 555,-80 561,-80 561,-80 708,-80 708,-80 714,-80 720,-86 720,-92 720,-92 720,-120 720,-120 720,-126 714,-132 708,-132"/>
<text text-anchor="middle" x="634.5" y="-111" font-family="Noto Sans CJK SC" font-size="15.00" fill="#172033">Blender：朝向、尺寸</text>
<text text-anchor="middle" x="634.5" y="-94" font-family="Noto Sans CJK SC" font-size="15.00" fill="#172033">和居中</text>
</g>
<!-- r&#45;&gt;b -->
<g id="edge6" class="edge">
<title>r&#45;&gt;b</title>
<path fill="none" stroke="#475569" stroke-width="1.7" d="M497.07,-106C497.07,-106 541.24,-106 541.24,-106"/>
<polygon fill="#475569" stroke="#475569" stroke-width="1.7" points="541.24,-108.63 548.74,-106 541.24,-103.38 541.24,-108.63"/>
</g>
<!-- u -->
<g id="node8" class="node">
<title>u</title>
<path fill="#f8fafc" stroke="#64748b" stroke-width="1.5" d="M901,-124C901,-124 784,-124 784,-124 778,-124 772,-118 772,-112 772,-112 772,-100 772,-100 772,-94 778,-88 784,-88 784,-88 901,-88 901,-88 907,-88 913,-94 913,-100 913,-100 913,-112 913,-112 913,-118 907,-124 901,-124"/>
<text text-anchor="middle" x="842.5" y="-102.5" font-family="Noto Sans CJK SC" font-size="15.00" fill="#172033">GLB 转 Z&#45;up USD</text>
</g>
<!-- b&#45;&gt;u -->
<g id="edge7" class="edge">
<title>b&#45;&gt;u</title>
<path fill="none" stroke="#475569" stroke-width="1.7" d="M720,-106C720,-106 764.39,-106 764.39,-106"/>
<polygon fill="#475569" stroke="#475569" stroke-width="1.7" points="764.39,-108.63 771.89,-106 764.39,-103.38 764.39,-108.63"/>
</g>
<!-- gv -->
<g id="node9" class="node">
<title>gv</title>
<path fill="#fff4fb" stroke="#a23b77" stroke-width="1.5" d="M1100,-205C1100,-205 977,-205 977,-205 971,-205 965,-199 965,-193 965,-193 965,-165 965,-165 965,-159 971,-153 977,-153 977,-153 1100,-153 1100,-153 1106,-153 1112,-159 1112,-165 1112,-165 1112,-193 1112,-193 1112,-199 1106,-205 1100,-205"/>
<text text-anchor="middle" x="1038.5" y="-184" font-family="Noto Sans CJK SC" font-size="15.00" fill="#172033">可选：根据参考图</text>
<text text-anchor="middle" x="1038.5" y="-167" font-family="Noto Sans CJK SC" font-size="15.00" fill="#172033">匹配并应用材质</text>
</g>
<!-- u&#45;&gt;gv -->
<g id="edge8" class="edge">
<title>u&#45;&gt;gv</title>
<path fill="none" stroke="#475569" stroke-width="1.7" d="M913.29,-103.5C945.7,-103.5 977,-103.5 977,-103.5 977,-103.5 977,-145.09 977,-145.09"/>
<polygon fill="#475569" stroke="#475569" stroke-width="1.7" points="974.38,-145.09 977,-152.59 979.63,-145.09 974.38,-145.09"/>
</g>
<!-- p -->
<g id="node14" class="node">
<title>p</title>
<path fill="#edf8f1" stroke="#397a50" stroke-width="1.5" d="M1304,-171C1304,-171 1176,-171 1176,-171 1170,-171 1164,-165 1164,-159 1164,-159 1164,-131 1164,-131 1164,-125 1170,-119 1176,-119 1176,-119 1304,-119 1304,-119 1310,-119 1316,-125 1316,-131 1316,-131 1316,-159 1316,-159 1316,-165 1310,-171 1304,-171"/>
<text text-anchor="middle" x="1240" y="-150" font-family="Noto Sans CJK SC" font-size="15.00" fill="#172033">Isaac：碰撞、刚体</text>
<text text-anchor="middle" x="1240" y="-133" font-family="Noto Sans CJK SC" font-size="15.00" fill="#172033">和质量</text>
</g>
<!-- u&#45;&gt;p -->
<g id="edge10" class="edge">
<title>u&#45;&gt;p</title>
<path fill="none" stroke="#9a681f" stroke-width="1.7" stroke-dasharray="5,2" d="M843,-124.17C843,-126.45 843,-128 843,-128 843,-128 1156.42,-128 1156.42,-128"/>
<polygon fill="#9a681f" stroke="#9a681f" stroke-width="1.7" points="1156.42,-130.63 1163.92,-128 1156.42,-125.38 1156.42,-130.63"/>
<text text-anchor="middle" x="1048.8" y="-119.2" font-family="Times,serif" font-size="11.00" fill="#7c5318">未启用参考图赋材质</text>
</g>
<!-- gv&#45;&gt;p -->
<g id="edge9" class="edge">
<title>gv&#45;&gt;p</title>
<path fill="none" stroke="#475569" stroke-width="1.7" d="M1112.1,-162C1112.1,-162 1156.39,-162 1156.39,-162"/>
<polygon fill="#475569" stroke="#475569" stroke-width="1.7" points="1156.39,-164.63 1163.89,-162 1156.39,-159.38 1156.39,-164.63"/>
</g>
<!-- c -->
<g id="node10" class="node">
<title>c</title>
<path fill="#fff7e8" stroke="#9a681f" stroke-width="1.5" d="M701,-44C701,-44 568,-44 568,-44 562,-44 556,-38 556,-32 556,-32 556,-20 556,-20 556,-14 562,-8 568,-8 568,-8 701,-8 701,-8 707,-8 713,-14 713,-20 713,-20 713,-32 713,-32 713,-38 707,-44 701,-44"/>
<text text-anchor="middle" x="634.5" y="-22.5" font-family="Noto Sans CJK SC" font-size="15.00" fill="#172033">STEP/STP 工程模型</text>
</g>
<!-- cu -->
<g id="node11" class="node">
<title>cu</title>
<path fill="#fff7e8" stroke="#9a681f" stroke-width="1.5" d="M884,-44C884,-44 801,-44 801,-44 795,-44 789,-38 789,-32 789,-32 789,-20 789,-20 789,-14 795,-8 801,-8 801,-8 884,-8 884,-8 890,-8 896,-14 896,-20 896,-20 896,-32 896,-32 896,-38 890,-44 884,-44"/>
<text text-anchor="middle" x="842.5" y="-22.5" font-family="Noto Sans CJK SC" font-size="15.00" fill="#172033">CAD 转 USD</text>
</g>
<!-- c&#45;&gt;cu -->
<g id="edge11" class="edge">
<title>c&#45;&gt;cu</title>
<path fill="none" stroke="#475569" stroke-width="1.7" d="M713.14,-26C713.14,-26 781.46,-26 781.46,-26"/>
<polygon fill="#475569" stroke="#475569" stroke-width="1.7" points="781.46,-28.63 788.96,-26 781.46,-23.38 781.46,-28.63"/>
</g>
<!-- cp -->
<g id="node12" class="node">
<title>cp</title>
<path fill="#edf8f1" stroke="#397a50" stroke-width="1.5" d="M1077.5,-52C1077.5,-52 999.5,-52 999.5,-52 993.5,-52 987.5,-46 987.5,-40 987.5,-40 987.5,-12 987.5,-12 987.5,-6 993.5,0 999.5,0 999.5,0 1077.5,0 1077.5,0 1083.5,0 1089.5,-6 1089.5,-12 1089.5,-12 1089.5,-40 1089.5,-40 1089.5,-46 1083.5,-52 1077.5,-52"/>
<text text-anchor="middle" x="1038.5" y="-31" font-family="Noto Sans CJK SC" font-size="15.00" fill="#172033">几何规范化</text>
<text text-anchor="middle" x="1038.5" y="-14" font-family="Noto Sans CJK SC" font-size="15.00" fill="#172033">与物理属性</text>
</g>
<!-- cu&#45;&gt;cp -->
<g id="edge12" class="edge">
<title>cu&#45;&gt;cp</title>
<path fill="none" stroke="#475569" stroke-width="1.7" d="M896.06,-26C896.06,-26 979.87,-26 979.87,-26"/>
<polygon fill="#475569" stroke="#475569" stroke-width="1.7" points="979.87,-28.63 987.37,-26 979.87,-23.38 979.87,-28.63"/>
</g>
<!-- cv -->
<g id="node13" class="node">
<title>cv</title>
<path fill="#fff4fb" stroke="#a23b77" stroke-width="1.5" d="M1301.5,-87C1301.5,-87 1178.5,-87 1178.5,-87 1172.5,-87 1166.5,-81 1166.5,-75 1166.5,-75 1166.5,-47 1166.5,-47 1166.5,-41 1172.5,-35 1178.5,-35 1178.5,-35 1301.5,-35 1301.5,-35 1307.5,-35 1313.5,-41 1313.5,-47 1313.5,-47 1313.5,-75 1313.5,-75 1313.5,-81 1307.5,-87 1301.5,-87"/>
<text text-anchor="middle" x="1240" y="-66" font-family="Noto Sans CJK SC" font-size="15.00" fill="#172033">可选：根据参考图</text>
<text text-anchor="middle" x="1240" y="-49" font-family="Noto Sans CJK SC" font-size="15.00" fill="#172033">匹配并应用材质</text>
</g>
<!-- cp&#45;&gt;cv -->
<g id="edge13" class="edge">
<title>cp&#45;&gt;cv</title>
<path fill="none" stroke="#475569" stroke-width="1.7" d="M1089.61,-43.5C1089.61,-43.5 1158.62,-43.5 1158.62,-43.5"/>
<polygon fill="#475569" stroke="#475569" stroke-width="1.7" points="1158.62,-46.13 1166.12,-43.5 1158.62,-40.88 1158.62,-46.13"/>
</g>
<!-- f -->
<g id="node15" class="node">
<title>f</title>
<path fill="#e8f5ee" stroke="#276640" stroke-width="2.2" d="M1476,-79C1476,-79 1380,-79 1380,-79 1374,-79 1368,-73 1368,-67 1368,-67 1368,-55 1368,-55 1368,-49 1374,-43 1380,-43 1380,-43 1476,-43 1476,-43 1482,-43 1488,-49 1488,-55 1488,-55 1488,-67 1488,-67 1488,-73 1482,-79 1476,-79"/>
<text text-anchor="middle" x="1428" y="-57.5" font-family="Noto Sans CJK SC" font-size="15.00" fill="#172033">收集最终 USD</text>
</g>
<!-- cp&#45;&gt;f -->
<g id="edge15" class="edge">
<title>cp&#45;&gt;f</title>
<path fill="none" stroke="#9a681f" stroke-width="1.7" stroke-dasharray="5,2" d="M1089.55,-17.5C1195.4,-17.5 1429,-17.5 1429,-17.5 1429,-17.5 1429,-35.3 1429,-35.3"/>
<polygon fill="#9a681f" stroke="#9a681f" stroke-width="1.7" points="1426.38,-35.3 1429,-42.8 1431.63,-35.3 1426.38,-35.3"/>
<text text-anchor="middle" x="1217.18" y="-8.7" font-family="Times,serif" font-size="11.00" fill="#7c5318">未启用参考图赋材质</text>
</g>
<!-- cv&#45;&gt;f -->
<g id="edge14" class="edge">
<title>cv&#45;&gt;f</title>
<path fill="none" stroke="#475569" stroke-width="1.7" d="M1313.76,-61C1313.76,-61 1360.28,-61 1360.28,-61"/>
<polygon fill="#475569" stroke="#475569" stroke-width="1.7" points="1360.28,-63.63 1367.78,-61 1360.28,-58.38 1360.28,-63.63"/>
</g>
<!-- p&#45;&gt;f -->
<g id="edge16" class="edge">
<title>p&#45;&gt;f</title>
<path fill="none" stroke="#475569" stroke-width="1.7" d="M1316.06,-145C1368.57,-145 1429,-145 1429,-145 1429,-145 1429,-86.73 1429,-86.73"/>
<polygon fill="#475569" stroke="#475569" stroke-width="1.7" points="1431.63,-86.73 1429,-79.23 1426.38,-86.73 1431.63,-86.73"/>
</g>
</g>
</svg>
